PathFileType	4	(X/Y/Z)	Trial07_KneeR_markers_cropped.trc
DataRate	CameraRate	NumFrames	NumMarkers	Units	OrigDataRate	OrigDataStartFrame	OrigNumFrames
200	200	6	27	m	200	75	101
Frame#	Time	R_ASIS			L_ASIS			Sacral			L_Thigh_Superior			L_Thigh_Posterior			L_Thigh_Inferior			L_Thigh_Lateral			L_Shank_Posterior			L_Shank_Superior			L_Shank_Lateral			L_Shank_Inferior			L_Midfoot_Superior			L_Heel			L_Midfoot_Lateral			L_Toe			R_Thigh_Posterior			R_Thigh_Superior			R_Thigh_Lateral			R_Thigh_Inferior			R_Shank_Posterior			R_Shank_Superior			R_Shank_Lateral			R_Shank_Inferior			R_Midfoot_Superior			R_Heel			R_Midfoot_Lateral			R_Toe
		X1	Y1	Z1	X2	Y2	Z2	X3	Y3	Z3	X4	Y4	Z4	X5	Y5	Z5	X6	Y6	Z6	X7	Y7	Z7	X8	Y8	Z8	X9	Y9	Z9	X10	Y10	Z10	X11	Y11	Z11	X12	Y12	Z12	X13	Y13	Z13	X14	Y14	Z14	X15	Y15	Z15	X16	Y16	Z16	X17	Y17	Z17	X18	Y18	Z18	X19	Y19	Z19	X20	Y20	Z20	X21	Y21	Z21	X22	Y22	Z22	X23	Y23	Z23	X24	Y24	Z24	X25	Y25	Z25	X26	Y26	Z26	X27	Y27	Z27

76	   0.375	    1.05507292806101	    0.99589405063543	    0.55646423628421	    1.13599504130306	    0.97033672123779	    0.31609351399669	    0.90804239982881	    1.03977770208220	    0.38334466448548	    1.11690551796346	    0.72748468605230	    0.26075461799157	    1.04196369890924	    0.71984415104011	    0.25534152958818	    1.12033065090015	    0.63509893799738	    0.28318501087482	    1.04092777761433	    0.63225574996323	    0.27507320569661	    0.99173533682572	    0.36568146655848	    0.30526228112617	    1.06363984914010	    0.34571701478102	    0.31885971864515	    0.98526902975667	    0.29469308557859	    0.31002394737237	    1.05005599010199	    0.28914444661454	    0.32174648159043	    1.08917444436631	    0.08803350162988	    0.42968507310200	    0.91680475103394	    0.03741621074779	    0.44818832498375	    1.01806625208551	    0.02423240135394	    0.38141717004966	    1.21448844662640	    0.03514318013612	    0.43190180326173	    0.99208097102185	    0.79315301341372	    0.62685550815025	    1.06595356760830	    0.80916826777157	    0.62832213821771	    1.01774300306433	    0.69826978131665	    0.64301259857220	    1.08623151405453	    0.71767987889795	    0.64683988601100	    0.95082437081927	    0.45586598729832	    0.64200126700318	    1.00462727712033	    0.40178612629930	    0.65274739169274	    0.90976326020993	    0.39847590743248	    0.62955058521509	    0.96739008156537	    0.35619753175473	    0.64030608578333	    0.89864375894900	    0.17348979977109	    0.58515978564102	    0.74617772583545	    0.21901123522890	    0.50314188041160	    0.78785742270292	    0.15260712718091	    0.59935879174416	    0.97267231832619	    0.07800117413539	    0.62885646152009
77	   0.380	    1.05487192974685	    0.99603615481951	    0.55650179636870	    1.13591699260015	    0.97026231613568	    0.31622774273964	    0.90797108342242	    1.03990251831986	    0.38326398225120	    1.11678684841342	    0.72750968334353	    0.26083720564521	    1.04185875845042	    0.71986294345381	    0.25543211521981	    1.12022949327500	    0.63510910195915	    0.28322260624423	    1.04081998813260	    0.63226312930017	    0.27516334389477	    0.99172603653313	    0.36569594161390	    0.30530460340608	    1.06363202030551	    0.34574210770755	    0.31889853691003	    0.98526269522492	    0.29470438522454	    0.31005728489024	    1.05005370068462	    0.28916101753251	    0.32178098964977	    1.08917148486258	    0.08801721816353	    0.42970009581736	    0.91679748151045	    0.03743655073641	    0.44817633085368	    1.01806940307971	    0.02423348169760	    0.38141338497642	    1.21448676127165	    0.03513581001623	    0.43190668477552	    0.99182880762361	    0.79326751362242	    0.62689989127176	    1.06571952225826	    0.80921533142128	    0.62831090232836	    1.01742560720980	    0.69834404609211	    0.64286112952158	    1.08594919208951	    0.71767251440905	    0.64662707309137	    0.95294048957580	    0.45066050160943	    0.64333211212559	    1.00885626743265	    0.39865375021140	    0.65374271546506	    0.91400885361017	    0.39171032593286	    0.63138032161965	    0.97325011690266	    0.35167563430400	    0.64170654723547	    0.91048136005389	    0.16580460123925	    0.58797928606561	    0.75617993126854	    0.20591897159226	    0.50693602280143	    0.80090724504666	    0.14126802895727	    0.60308747898408	    0.98858311891161	    0.07345877217364	    0.63153477786767
78	   0.385	    1.05470183513457	    0.99611913477015	    0.55652528337043	    1.13585240120061	    0.97018218321138	    0.31634331505699	    0.90791059080509	    1.03998586033140	    0.38319272738295	    1.11669922741970	    0.72753527383689	    0.26088428851605	    1.04179657399953	    0.71988688722618	    0.25547082009145	    1.12016479476296	    0.63511974194358	    0.28323235174176	    1.04074987619158	    0.63226590030001	    0.27519595547782	    0.99170519859315	    0.36569778767138	    0.30534131608264	    1.06360995116325	    0.34575556889933	    0.31892319262220	    0.98524969435088	    0.29470774281015	    0.31008205008777	    1.05003735554266	    0.28917286055656	    0.32180776661226	    1.08916175048944	    0.08798831160808	    0.42971296367486	    0.91671747036615	    0.03746487763776	    0.44816722968157	    1.01807145392078	    0.02423414991762	    0.38141230943862	    1.21448535595979	    0.03512579286876	    0.43190638191281	    0.99157884635929	    0.79330733094905	    0.62694646729108	    1.06548830143264	    0.80914960754079	    0.62831536640681	    1.01705264675055	    0.69832603940459	    0.64270981603103	    1.08561723628285	    0.71754768665749	    0.64641151468738	    0.95538690940127	    0.44541069345305	    0.64485605829656	    1.01333367769522	    0.39554076727404	    0.65472987140001	    0.91857295279339	    0.38504897468151	    0.63341471875215	    0.97933779963663	    0.34727086237078	    0.64309592135807	    0.92260293086376	    0.15875106710529	    0.59048457632624	    0.76642610349694	    0.19320173681845	    0.51100880609127	    0.81450442912011	    0.13039835396284	    0.60684313996155	    1.00491021614882	    0.06972658729015	    0.63337397023931
79	   0.390	    1.05455831423633	    0.99615251493385	    0.55654508330429	    1.13580791373551	    0.97010853982730	    0.31643127767017	    0.90786931961360	    1.04004931557867	    0.38310549660152	    1.11664256905131	    0.72755827768749	    0.26091978992384	    1.04175613973422	    0.71990178212542	    0.25545995879214	    1.12012264121200	    0.63513633594068	    0.28324852311563	    1.04070981227294	    0.63227210524935	    0.27517816525163	    0.99163698703231	    0.36570088388983	    0.30537456245337	    1.06354437770717	    0.34577204572879	    0.31893050914015	    0.98519208369281	    0.29471979470536	    0.31010136208747	    1.04997605164163	    0.28918856953636	    0.32181881236584	    1.08915427667980	    0.08797367839891	    0.42971991459058	    0.91661631555249	    0.03746239253624	    0.44819574822824	    1.01807188769072	    0.02423485973480	    0.38141504787520	    1.21448712260313	    0.03511718276896	    0.43190018896336	    0.99128851960763	    0.79328224750085	    0.62698389360429	    1.06522189613827	    0.80898547624909	    0.62837059558280	    1.01658828802910	    0.69821850096955	    0.64256136006725	    1.08518932193067	    0.71731016367532	    0.64624947416880	    0.95811075223650	    0.44016036726038	    0.64642688737010	    1.01799943566192	    0.39253215595990	    0.65576269786696	    0.92335979591570	    0.37855345091632	    0.63556911754335	    0.98558958013489	    0.34304588176683	    0.64451533062943	    0.93502712990024	    0.15236719899917	    0.59284297027920	    0.77706837820981	    0.18083013718274	    0.51522245292984	    0.82851420003056	    0.12005335557518	    0.61056238353514	    1.02138080873777	    0.06667550723652	    0.63478019662402
80	   0.395	    1.05444778716589	    0.99614880585363	    0.55656306699071	    1.13577521686927	    0.97004814885513	    0.31649044407898	    0.90785275421664	    1.04010871206962	    0.38298929562180	    1.11659024576000	    0.72758250733847	    0.26095353480240	    1.04172115484332	    0.71991838410842	    0.25540230970273	    1.12007065683112	    0.63516456978079	    0.28327385469423	    1.04066939983944	    0.63229053988003	    0.27512902139933	    0.99151885346194	    0.36571759836900	    0.30536772925601	    1.06343292238881	    0.34579614211176	    0.31889641387842	    0.98508570019088	    0.29474110227680	    0.31008994907916	    1.04987290500687	    0.28921488411818	    0.32177990666616	    1.08916045637344	    0.08798319305534	    0.42971407505966	    0.91658345132715	    0.03744578413050	    0.44822627277415	    1.01807055033459	    0.02423179108560	    0.38141605547835	    1.21449185638759	    0.03511833040449	    0.43189021669051	    0.99092351120419	    0.79321966364593	    0.62699206554945	    1.06490303398443	    0.80875991848633	    0.62845553301198	    1.01601253606471	    0.69804759729336	    0.64239965144936	    1.08464079385840	    0.71698694426375	    0.64614488009751	    0.96091493331626	    0.43499947233850	    0.64794671906588	    1.02267598014729	    0.38973268911439	    0.65690419173471	    0.92823082104446	    0.37226453857160	    0.63769470105470	    0.99190105292838	    0.33907412879270	    0.64596071030368	    0.94782272635520	    0.14671985459321	    0.59533828716654	    0.78810134032501	    0.16884862272727	    0.51928331737108	    0.84277991455535	    0.11024883062582	    0.61416904217394	    1.03777060576103	    0.06423041389828	    0.63626706425350
81	   0.400	    1.05438852455516	    0.99611441477957	    0.55656938290831	    1.13575904173324	    0.97000206401151	    0.31652051173312	    0.90786485961089	    1.04016025797132	    0.38285709698921	    1.11652562365533	    0.72761423587900	    0.26096691892714	    1.04169247850695	    0.71995550599371	    0.25531314654470	    1.11999872802117	    0.63519303793235	    0.28328162292701	    1.04060652958699	    0.63231587233343	    0.27506973700518	    0.99139461673348	    0.36573966316827	    0.30530220053387	    1.06331805033804	    0.34582066857433	    0.31882344221566	    0.98497406228115	    0.29476114224254	    0.31002549738803	    1.04976730196527	    0.28924015447068	    0.32169787611462	    1.08916446023142	    0.08797615948662	    0.42970562132767	    0.91658468269688	    0.03744206185910	    0.44823602540003	    1.01807111409850	    0.02423071590678	    0.38140823942527	    1.21449913426298	    0.03512279916266	    0.43188047126051	    0.99048678210767	    0.79314726910471	    0.62697183558099	    1.06451661402059	    0.80849951967513	    0.62854384188657	    1.01531578909558	    0.69785745546224	    0.64220514649082	    1.08398596141607	    0.71661709289840	    0.64606587722973	    0.96350040951148	    0.43007646349197	    0.64932641497244	    1.02698369470676	    0.38725844312203	    0.65806615696918	    0.93301370124424	    0.36620635401303	    0.63963063202934	    0.99810249696695	    0.33542341073378	    0.64746985059578	    0.96091913713024	    0.14176410421621	    0.59804613346027	    0.79962278390010	    0.15718163183176	    0.52313999128528	    0.85723882187784	    0.10098919703272	    0.61768880577611	    1.05399789068465	    0.06243048416479	    0.63816369730218
